<?xml version="1.0" encoding="UTF-8" standalone="no"?><!-- Generator: Gravit.io --><svg xmlns="http://www.w3.org/2000/svg" xmlns:xlink="http://www.w3.org/1999/xlink" style="isolation:isolate" viewBox="0 0 401 400" width="401pt" height="400pt"><defs><clipPath id="_clipPath_ni02Jj50nRXBSsAC6OWVH2E1ITVVtbsC"><rect width="401" height="400"/></clipPath></defs><g clip-path="url(#_clipPath_ni02Jj50nRXBSsAC6OWVH2E1ITVVtbsC)"><path d=" M 200 0 L 200 40 L 130 110 L 310 290 L 200 400 L 200 360 L 270 290 L 90 110 L 200 0 Z " fill="rgb(0,0,0)"/><path d=" M 310 400 L 240 400 L 270 370 L 310 370 L 310 400 Z " fill="rgb(0,0,0)"/><path d=" M 160 400 L 90 400 L 90 370 L 130 370 L 160 400 Z " fill="rgb(0,0,0)"/><path d=" M 200 0 L 310 110 L 130 290 L 200 360 L 200 400 L 90 290 L 270 110 L 200 40 L 200 0 Z " fill="rgb(0,0,0)"/><path d=" M 170 290 L 230 290 L 200 320 L 170 290 Z " fill="rgb(0,0,0)"/></g></svg>